<svg width="12" height="12" viewBox="0 0 12 12" fill="none" xmlns="http://www.w3.org/2000/svg">
<path d="M1.5 7L2 9.5M2 9.5L1.5 11M2 9.5H3.32644C3.67867 9.5 3.76172 9.57035 3.81963 9.9178L4 11" stroke="#AAAAAA" stroke-linecap="round" stroke-linejoin="round"/>
<path d="M10.5 7L10 9.5M10 9.5L10.5 11M10 9.5H8.67355C8.32135 9.5 8.23825 9.57035 8.18035 9.9178L8 11" stroke="#AAAAAA" stroke-linecap="round" stroke-linejoin="round"/>
<path d="M6 5V11" stroke="#AAAAAA" stroke-linecap="round" stroke-linejoin="round"/>
<path d="M2.30023 3.70363C3.33506 3.21909 4.37632 2.44925 5.1444 1.68201C5.5996 1.22734 5.82715 1 6 1C6.17285 1 6.4004 1.22734 6.8556 1.68201C7.6237 2.44925 8.66495 3.21909 9.69975 3.70363C10.0517 3.86841 10.2664 4.07168 10.4365 4.4674C10.5666 4.77011 10.5083 5 10.1536 5H1.84648C1.49174 5 1.43336 4.77011 1.56349 4.4674C1.73359 4.07168 1.94832 3.86841 2.30023 3.70363Z" stroke="#AAAAAA" stroke-linecap="round" stroke-linejoin="round"/>
<path d="M5.5 11H6.5" stroke="#AAAAAA" stroke-linecap="round" stroke-linejoin="round"/>
<path d="M4.5 7.5H7.5" stroke="#AAAAAA" stroke-linecap="round" stroke-linejoin="round"/>
</svg>
