<svg xmlns="http://www.w3.org/2000/svg" width="12" height="12" viewBox="0 0 12 12" fill="none">
  <path d="M3 8.5V10M9 8.5V10" stroke="#AAAAAA" stroke-linecap="round" stroke-linejoin="round"/>
  <path d="M10 4.5C10 3.56538 10 3.09808 9.79905 2.75C9.6674 2.52197 9.47805 2.33261 9.25 2.20096C8.9019 2 8.4346 2 7.5 2H4.5C3.56538 2 3.09808 2 2.75 2.20096C2.52197 2.33261 2.33261 2.52197 2.20096 2.75C2 3.09808 2 3.56538 2 4.5" stroke="#AAAAAA" stroke-linecap="round" stroke-linejoin="round"/>
  <path d="M10 4.5C9.4477 4.5 9 4.94771 9 5.5V6.5C9 6.91365 8.91365 7 8.5 7H3.5C3.08634 7 3 6.91365 3 6.5V5.5C3 4.94771 2.55229 4.5 2 4.5C1.44771 4.5 1 4.94771 1 5.5C1 5.87015 1.2011 6.1933 1.5 6.3662V6.5C1.5 7.4428 1.5 7.9142 1.79289 8.2071C2.08578 8.5 2.55719 8.5 3.5 8.5H8.5C9.4428 8.5 9.9142 8.5 10.2071 8.2071C10.5 7.9142 10.5 7.4428 10.5 6.5V6.3662C10.7989 6.1933 11 5.87015 11 5.5C11 4.94771 10.5523 4.5 10 4.5Z" stroke="#AAAAAA" stroke-linejoin="round"/>
</svg>