<svg width="12" height="12" viewBox="0 0 12 12" fill="none" xmlns="http://www.w3.org/2000/svg">
<path d="M11 8.75H1" stroke="#AAAAAA" stroke-linecap="round" stroke-linejoin="round"/>
<path d="M11 10.5V8C11 7.0572 11 6.5858 10.7071 6.2929C10.4142 6 9.9428 6 9 6H3C2.05719 6 1.58578 6 1.29289 6.2929C1 6.5858 1 7.0572 1 8V10.5" stroke="#AAAAAA" stroke-linecap="round" stroke-linejoin="round"/>
<path d="M5.5 6V5.1067C5.5 4.91636 5.4714 4.8527 5.32485 4.77769C5.01975 4.62146 4.64933 4.5 4.25 4.5C3.85067 4.5 3.48027 4.62146 3.17512 4.77769C3.0286 4.8527 3 4.91636 3 5.1067V6" stroke="#AAAAAA" stroke-linecap="round"/>
<path d="M9 6V5.1067C9 4.91636 8.9714 4.8527 8.82485 4.77769C8.51975 4.62146 8.14935 4.5 7.75 4.5C7.35065 4.5 6.98025 4.62146 6.67515 4.77769C6.5286 4.8527 6.5 4.91636 6.5 5.1067V6" stroke="#AAAAAA" stroke-linecap="round"/>
<path d="M10.5 6V3.68028C10.5 3.33446 10.5 3.16156 10.4039 2.99827C10.3078 2.83498 10.171 2.75045 9.8972 2.58141C8.79345 1.89989 7.44965 1.5 6 1.5C4.55034 1.5 3.20657 1.89989 2.10279 2.58141C1.82902 2.75045 1.69214 2.83498 1.59607 2.99827C1.5 3.16156 1.5 3.33446 1.5 3.68028V6" stroke="#AAAAAA" stroke-linecap="round"/>
</svg>
