<svg width="1025" height="1024" xmlns="http://www.w3.org/2000/svg">
 <g>
  <title>background</title>
  <rect x="-1" y="-1" width="802" height="602" id="canvas_background" fill="none"/>
 </g>

 <g>
  <title>Layer 1</title>
  <g stroke="null" id="svg_1">
   <path stroke="null" id="svg_2" d="m846.66481,357.73969l-333.9866,-260.77729l-333.9866,260.77729l0,308.52885l333.96831,260.79558l334.02317,-260.79558l-0.01829,-308.52885zm-21.00996,3.90773l-150.0233,117.12574l-312.95469,-244.37241l150.00867,-117.12574l312.96932,244.37241zm-313.00956,244.37241l-312.95469,-244.37241l149.99586,-117.1038l312.95469,244.37241l-149.99586,117.1038zm-317.94748,-227.96752l309.95536,242.03146l0,280.40097l-309.95536,-242.03146l0,-280.40097zm325.9579,522.43243l0,-280.40097l310.02852,-242.03146l0,219.62792l-80.23396,58.23093l9.40858,12.94486l70.8263,-51.40014l0,41.01404l-310.02943,242.01482z"/>
   <path stroke="null" id="svg_3" d="m176.24095,104.6107l-11.40898,107.63213l15.90963,1.67884l15.28105,-144.0228l-149.58071,57.27261l5.71519,14.94527l104.7663,-40.09961c-101.02262,112.98155 -156.32555,257.2293 -156.32555,409.99406c0,164.55543 64.07415,319.24598 180.42811,435.59811l11.31608,-11.31608c-113.33269,-113.31074 -175.74257,-263.99609 -175.74257,-424.27746c0,-152.45202 56.5813,-296.16575 159.63945,-407.39708l0.00201,-0.00799z"/>
   <path stroke="null" id="svg_4" d="m868.40997,921.99818c215.71415,-241.61083 207.72203,-613.76575 -24.09707,-845.59217l-11.31608,11.31608c228.40645,228.40645 233.71015,596.59275 16.09544,831.63796l11.42325,-107.60287l-15.90963,-1.67884l-15.28105,144.0228l149.59534,-57.25981l-5.71519,-14.94527l-104.79502,40.10211z"/>
  </g>
 </g>
</svg>