<svg width="1025" height="1024" xmlns="http://www.w3.org/2000/svg">
 <g>
  <title>background</title>
  <rect fill="none" id="canvas_background" height="602" width="802" y="-1" x="-1"/>
 </g>

 <g>
  <title>Layer 1</title>
  <g stroke="null" id="svg_1">
   <path stroke="null" id="svg_2" d="m689.27243,1023.13587c-164.84664,0 -299.63028,-134.78364 -299.63028,-299.63028c0,-164.84664 134.78364,-299.63028 299.63028,-299.63028c164.84664,0 299.63028,134.78364 299.63028,299.63028c0,164.85405 -134.78364,299.63028 -299.63028,299.63028zm0,-561.93638c-145.14592,0 -262.3061,118.19326 -262.3061,262.3061c0,145.14592 118.19326,262.3061 262.3061,262.3061c145.14592,0 262.3061,-118.19326 262.3061,-262.3061c0,-145.14592 -117.15092,-262.3061 -262.3061,-262.3061z"/>
   <path stroke="null" id="svg_3" d="m692.38278,570.0617c-57.02492,0 -102.64337,45.6203 -102.64337,102.64337c0,9.32938 7.261,16.59019 16.59019,16.59019c9.32938,0 16.59019,-7.261 16.59019,-16.59019c0,-38.35912 31.10534,-69.46446 69.46446,-69.46446s69.46446,31.10534 69.46446,69.46446s-31.10534,69.46446 -69.46446,69.46446c-9.32938,0 -16.59019,7.261 -16.59019,16.59019l0,49.76373c0,9.32938 7.261,16.59019 16.59019,16.59019c9.32938,0 16.59019,-7.261 16.59019,-16.59019l0,-35.24877c48.7288,-8.29519 86.05299,-50.80422 86.05299,-101.60288c1.03417,-55.98998 -45.6203,-101.61029 -102.64337,-101.61029l-0.0013,0.00019z"/>
   <path stroke="null" id="svg_4" d="m716.22879,876.94947c0,13.16955 -10.68164,23.84416 -23.85156,23.84416c-13.16955,0 -23.84416,-10.67442 -23.84416,-23.84416c0,-13.16955 10.67442,-23.85156 23.84416,-23.85156c13.16955,0 23.85156,10.68164 23.85156,23.85156"/>
   <path stroke="null" id="svg_5" d="m426.96633,1023.13587l-371.16831,0c-10.37079,0 -19.70073,-9.32938 -19.70073,-19.70073l0,-982.87028c0,-10.37079 9.32938,-19.70073 19.70073,-19.70073l623.10658,0.00724c5.1854,0 10.37079,2.0756 13.4804,5.1854l180.40209,176.25126c4.14398,4.14398 6.21959,8.29519 6.21959,14.51459l0,180.40209c0,10.37079 -9.32938,19.70073 -19.70073,19.70073c-10.37079,0 -19.70073,-9.32938 -19.70073,-19.70073l-0.00724,-172.11523l-168.99007,-164.84664l-595.11344,0l0,943.47252l351.46943,0c10.37079,0 19.70073,9.32938 19.70073,19.70073c0,10.36357 -8.29519,19.69332 -19.70073,19.69332l0.00243,0.00646z"/>
   <path stroke="null" id="svg_6" d="m191.61659,337.82231l415.74998,0c12.43917,0 22.80923,-10.37079 22.80923,-22.80923s-10.37079,-22.80923 -22.80923,-22.80923l-415.74998,0c-12.43917,0 -22.80923,10.37079 -22.80923,22.80923s10.37079,22.80923 22.80923,22.80923z"/>
   <path stroke="null" id="svg_7" d="m193.69016,212.37157l415.74998,0c12.43917,0 22.80923,-10.37079 22.80923,-22.80923s-10.37079,-22.80923 -22.80923,-22.80923l-415.74998,0c-12.43917,0 -22.80923,10.37079 -22.80923,22.80923s10.37079,22.80923 22.80923,22.80923z"/>
   <path stroke="null" id="svg_8" d="m193.69016,466.3834l243.644,0c12.43917,0 22.80923,-10.37079 22.80923,-22.80923s-10.37079,-22.80923 -22.80923,-22.80923l-243.644,0c-12.43917,0 -22.80923,10.37079 -22.80923,22.80923c0,12.44639 10.37079,22.80923 22.80923,22.80923z"/>
   <path stroke="null" id="svg_9" d="m345.06048,599.09163l-152.4071,0c-12.43917,0 -22.80923,-10.37079 -22.80923,-22.80923s10.37079,-22.80923 22.80923,-22.80923l152.4071,0c12.43917,0 22.80923,10.37079 22.80923,22.80923c0,12.44639 -10.37079,22.80923 -22.80923,22.80923z"/>
  </g>
 </g>
</svg>