<svg width="1025" height="1024" xmlns="http://www.w3.org/2000/svg">
 <g>
  <title>background</title>
  <rect x="-1" y="-1" width="802" height="602" id="canvas_background" fill="none"/>
 </g>

 <g>
  <title>Layer 1</title>
  <g stroke="null" id="svg_1">
   <path stroke="null" id="svg_2" d="m102.62612,483.81351c23.649,25.46815 50.9363,54.57461 63.67038,100.05345c25.46815,83.68106 -7.27661,185.55366 -96.41514,303.78825l-36.38307,-27.2873c14.55323,-18.19154 27.2873,-36.38307 38.20223,-54.57461l30.92561,0l0,-10.91492l-23.649,0c10.91492,-18.19154 20.01069,-34.56392 27.2873,-50.9363l32.74476,0l0,-10.91492l-27.2873,0c5.45746,-14.55323 9.09577,-27.2873 12.73408,-40.02138l30.92561,0l0,-10.91492l-29.10646,0c1.81915,-14.55323 3.63831,-27.2873 3.63831,-40.02138l27.2873,0l0,-10.91492l-29.10646,0c0,-10.91492 -3.63831,-20.01069 -5.45746,-30.92561c-1.81915,-7.27661 -3.63831,-12.73408 -7.27661,-20.01069l23.649,0l0,-10.91492l-29.10646,0c-10.91492,-18.19154 -23.649,-34.56392 -38.20223,-49.11715l27.2873,0l0,-10.91492l-36.38307,1.81915c-12.73408,-14.55323 -27.2873,-30.92561 -38.20223,-49.11715l29.10646,0l0,-10.91492l-34.56392,0c-5.45746,-10.91492 -9.09577,-21.82984 -12.73408,-34.56392c-1.81915,-10.91492 -1.81915,-16.37238 -3.63831,-21.82984l30.92561,0l0,-10.91492l-32.74476,0c-1.81915,-16.37238 0,-32.74476 1.81915,-50.9363l29.10646,0l0,-10.91492l-27.2873,0c3.63831,-16.37238 9.09577,-32.74476 16.37238,-50.9363l36.38307,-1.81915l1.81915,-10.91492l-32.74476,0c7.27661,-16.37238 18.19154,-34.56392 29.10646,-50.9363l36.38307,0l0,-10.91492l-27.2873,0c12.73408,-20.01069 29.10646,-38.20223 45.47884,-60.03207l34.56392,29.10646c-78.2236,89.13853 -109.14921,167.36213 -92.77683,232.85166c7.27661,38.20223 27.2873,60.03207 50.9363,85.50022l0,0.0104z"/>
   <path stroke="null" id="svg_3" d="m761.15971,481.98396l-220.12798,0l0,-41.84053l-125.5216,72.76614l125.5216,72.76614l0,-41.84053l220.12798,0l0,-61.85122z"/>
   <path stroke="null" id="svg_4" d="m1004.92629,247.32355c-50.9363,-20.01069 -103.69175,-41.84053 -154.62805,-61.85122c-16.37238,-5.45746 -30.92561,-12.73408 -47.29799,-18.19154c-20.01069,-9.09577 -41.84053,-16.37238 -61.85122,-25.46815c-1.81915,-1.81915 -5.45746,-1.81915 -7.27661,-3.63831l-7.27661,0c-1.81915,0 -1.81915,1.81915 -3.63831,1.81915c-7.27661,3.63831 -12.73408,7.27661 -20.01069,9.09577c-1.81915,0 -3.63831,1.81915 -5.45746,1.81915c-12.73408,5.45746 -25.46815,9.09577 -38.20223,12.73408l-1.81915,0c-1.81915,0 -5.45746,1.81915 -7.27661,1.81915c-12.73408,1.81915 -25.46815,3.63831 -36.38307,5.45746c-12.73408,1.81915 -25.46815,1.81915 -36.38307,1.81915c-9.09577,0 -20.01069,-1.81915 -29.10646,-3.63831c-7.27661,-1.81915 -14.55323,-1.81915 -21.82984,-3.63831c-3.63831,0 -5.45746,-1.81915 -9.09577,-1.81915c-12.73408,-3.63831 -25.46815,-7.27661 -38.20223,-12.73408c-1.81915,0 -3.63831,-1.81915 -5.45746,-1.81915c-1.81915,-1.81915 -3.63831,-1.81915 -7.27661,-3.63831c-5.45746,-1.81915 -9.09577,-3.63831 -12.73408,-7.27661c-1.81915,0 -1.81915,-1.81915 -3.63831,-1.81915l-9.09577,0c-23.649,9.09577 -47.29799,18.19154 -69.12784,27.2873c-3.63831,1.81915 -5.45746,1.81915 -9.09577,3.63831c-65.48953,27.2873 -130.97906,52.75545 -196.46859,80.04276c-7.27661,3.63831 -10.91492,9.09577 -14.55323,16.37238l0,7.27661l10.91492,32.74476c0,1.81915 1.81915,5.45746 1.81915,7.27661l16.37238,49.11715c9.09577,30.92561 20.01069,60.03207 29.10646,90.95768c3.63831,10.91492 10.91492,16.37238 23.649,16.37238l90.95768,0l5.45746,0l0,3.63831l0,387.49011c0,10.91492 5.45746,20.01069 16.37238,23.649c0,0 1.81915,0 1.81915,1.81915l478.427,0c1.81915,0 1.81915,-1.81915 3.63831,-1.81915c9.09577,-3.63831 14.55323,-10.91492 14.55323,-20.01069l0,-163.72382l0,-171.00044l0,-58.21291l96.41514,0c12.73408,0 20.01069,-5.45746 23.649,-18.19154c9.09577,-30.92561 20.01069,-60.03207 29.10646,-90.95768l16.37238,-49.11715c3.63831,-12.73408 9.09577,-27.2873 12.73408,-40.02138l0,-1.81915l0,-5.45746c0,-7.27661 -7.27661,-12.73408 -18.19154,-16.37238l0.0104,-0.0104zm-525.74578,-47.29799c74.5853,23.649 147.35144,23.649 221.93674,0l1.81915,0l0,1.81915c-1.81915,1.81915 -1.81915,3.63831 -3.63831,5.45746c-5.45746,10.91492 -12.73408,20.01069 -21.82984,27.2873c-10.91492,9.09577 -21.82984,16.37238 -36.38307,21.82984c-5.45746,1.81915 -9.09577,3.63831 -14.55323,3.63831c-30.92561,7.27661 -61.85122,7.27661 -90.95768,-3.63831c-7.27661,-3.63831 -14.55323,-5.45746 -20.01069,-10.91492c-5.45746,-3.63831 -10.91492,-7.27661 -14.55323,-10.91492c-9.09577,-9.09577 -16.37238,-18.19154 -21.82984,-30.92561c0,0 0,-1.81915 -1.81915,-1.81915c0,0 0,-1.81915 -1.81915,-1.81915c0,-1.81915 1.81915,0 3.63831,0zm445.70302,227.40459l-98.23429,0c-16.37238,0 -23.649,9.09577 -23.649,23.649l0,269.23473l0,116.42583c0,3.63831 -1.81915,5.45746 -5.45746,5.45746l-181.91536,0l-85.50022,0l-149.17059,0c-3.63831,0 -5.45746,-1.81915 -5.45746,-5.45746l0,-385.66056c0,-16.37238 -9.09577,-25.46815 -25.46815,-25.46815l-98.23429,0c-3.63831,0 -5.45746,0 -5.45746,-3.63831c-7.27661,-23.649 -14.55323,-47.29799 -23.649,-70.94699c0,-1.81915 -1.81915,-5.45746 -1.81915,-7.27661c-5.45746,-16.37238 -10.91492,-34.56392 -16.37238,-50.9363c0,-1.81915 -1.81915,-3.63831 -1.81915,-5.45746s0,-3.63831 -1.81915,-5.45746c50.9363,-20.01069 101.8726,-41.84053 150.98975,-61.85122c1.81915,-1.81915 5.45746,-1.81915 7.27661,-3.63831l1.81915,0c7.27661,-1.81915 12.73408,-5.45746 20.01069,-9.09577c1.81915,0 3.63831,-1.81915 5.45746,-1.81915c12.73408,-5.45746 25.46815,-10.91492 38.20223,-14.55323c3.63831,7.27661 5.45746,16.37238 9.09577,23.649l5.45746,10.91492c1.81915,3.63831 3.63831,5.45746 3.63831,9.09577c5.45746,7.27661 9.09577,14.55323 16.37238,21.82984l5.45746,5.45746c7.27661,9.09577 16.37238,16.37238 27.2873,21.82984c9.09577,5.45746 20.01069,10.91492 30.92561,14.55323c54.57461,20.01069 107.33006,16.37238 158.26636,-10.91492c1.81915,-1.81915 3.63831,-1.81915 5.45746,-3.63831c10.91492,-5.45746 20.01069,-12.73408 27.2873,-21.82984l5.45746,-5.45746c5.45746,-7.27661 10.91492,-14.55323 16.37238,-21.82984c1.81915,-3.63831 3.63831,-5.45746 5.45746,-9.09577c3.63831,-9.09577 7.27661,-18.19154 10.91492,-29.10646c0,-1.81915 0,-1.81915 1.81915,-3.63831l1.81915,-1.81915c12.73408,5.45746 25.46815,10.91492 38.20223,14.55323c1.81915,0 3.63831,1.81915 5.45746,1.81915c7.27661,3.63831 12.73408,5.45746 20.01069,9.09577c1.81915,0 1.81915,0 1.81915,1.81915c3.63831,1.81915 7.27661,3.63831 12.73408,5.45746l147.35144,60.03207l-47.29799,143.71313l-9.09577,0z"/>
  </g>
 </g>
</svg>